<svg version="1" xmlns="http://www.w3.org/2000/svg" width="933.333" height="933.333" viewBox="0 0 700.000000 700.000000"><path d="M337.2 2.4c-10.2 3.8-17.7 9.6-22.9 18-1.4 2.2-5.2 11.8-8.4 21.3-5.9 17.3-14 38-19.8 50.6-1.7 3.7-3.1 7-3.1 7.2 0 .7-21.8 44.4-26 52-1.8 3.3-4.8 8.9-6.8 12.5-12.5 23-27.6 47.7-48.2 78.5-17.9 26.7-50.2 73.9-52.8 77-1.4 1.7-9.7 15.6-14 23.5-12.9 23.6-23.5 56.9-26.6 83-.3 2.5-.8 6.5-1.1 9-.8 5.8-.9 34.7-.2 42.5 3.8 42.5 15.4 76.7 37.4 110.7 3.9 6.1 16.8 23 20.8 27.3 19.8 21.3 35 34.5 54.5 47.4 8.6 5.7 35.3 19.5 39.7 20.6 1 .3 6.5 2.1 12.2 4.1 10.9 3.8 28.2 8 36.6 9 2.8.3 5.3.8 5.6.9 1.4.9 20 2 35.4 2 17.8 0 31.3-.8 40.5-2.5 3-.5 6.6-1.1 8-1.4 7.3-1.2 25.5-6.2 34.9-9.5 28.9-10.3 55.3-26.5 80-48.8 42.4-38.3 69.9-88.4 77.6-140.8 2.4-16.9 3.7-51.9 2.1-61-.2-1.7-.8-5.9-1.1-9.5-.4-3.6-1-8.3-1.5-10.5-.5-2.2-1.2-5.6-1.5-7.5-1.3-7.4-4.8-19.9-8.7-31-4-11.3-13.1-32.1-15.3-35-.7-.8-2.7-4.2-4.5-7.5-3-5.5-9.6-15.4-26.7-40-13.9-20-59.4-88.6-65-98-5.5-9.2-15.5-27-24.6-43.7-13.2-24.1-31.4-62.7-39.4-83.3-1.9-5-4.3-11-5.2-13.5-1-2.5-3.8-10.4-6.1-17.5-5.3-16.2-7-19.6-12.8-25.4-11.4-11.4-29.1-15.8-43-10.7zm-41.8 402.9c1.5 1 3.3 4.3 5.1 9.4 5.7 16.3 16.4 35.7 31.5 57.3 12.5 18 16.6 27.7 17.7 42 .4 6.6.1 10.4-2.1 21-1.5 6.9-8.1 17.7-15.5 25-12.4 12.3-26.1 18.1-42.9 18.1-20 0-36.5-8.3-48.9-24.6-8.4-11.1-11.7-21.6-11.6-36.5.1-16.6 3.2-23.8 22.4-52.3 11.4-16.8 20.2-33.1 25.9-48 3.2-8.4 4.7-11 6.8-12.1 3.2-1.7 8.4-1.4 11.6.7z"/></svg>